<svg xmlns="http://www.w3.org/2000/svg" xmlns:xlink="http://www.w3.org/1999/xlink" width="533" height="150" viewBox="0 0 533 150">
  <defs>
    <path id="ror-logo-b" d="M307.457462,96.8298225 C286.767137,98.8407101 266.076811,99.8461538 245.522606,99.8461538 C224.968401,99.8461538 204.278075,98.8407101 183.587749,96.8298225 C182.498785,84.0104142 181.818182,71.8194083 181.818182,59 C181.818182,46.1805917 182.498785,34.1152663 183.587749,21.1701775 C204.278075,19.1592899 224.968401,18.1538462 245.522606,18.1538462 C266.076811,18.1538462 286.767137,19.1592899 307.457462,21.1701775 C308.546427,34.1152663 309.090909,46.1805917 309.090909,59 C309.090909,71.8194083 308.546427,84.0104142 307.457462,96.8298225 Z M209.090909,63.5384615 C209.090909,72.3099112 209.502746,80.4267751 210.326419,89.1982249 C223.367907,90.2455621 236.958511,90.7692308 250,90.7692308 C262.90421,90.7692308 276.494814,90.2455621 289.536303,89.1982249 C290.359976,80.4267751 290.909091,72.3099112 290.909091,63.5384615 C290.909091,54.7670118 290.359976,46.6501479 289.536303,37.8786982 C276.494814,36.8313609 262.90421,36.3076923 250,36.3076923 C236.958511,36.3076923 223.367907,36.8313609 210.326419,37.8786982 C209.502746,46.6501479 209.090909,54.7670118 209.090909,63.5384615 Z"/>
    <filter id="ror-logo-a" width="149.5%" height="177.1%" x="-24.8%" y="-38.6%" filterUnits="objectBoundingBox">
      <feMorphology in="SourceAlpha" operator="dilate" radius=".5" result="shadowSpreadOuter1"/>
      <feOffset in="shadowSpreadOuter1" result="shadowOffsetOuter1"/>
      <feGaussianBlur in="shadowOffsetOuter1" result="shadowBlurOuter1" stdDeviation="10"/>
      <feColorMatrix in="shadowBlurOuter1" values="0 0 0 0 0   0 0 0 0 0   0 0 0 0 0  0 0 0 0.4 0"/>
    </filter>
    <path id="ror-logo-d" d="M381.346607,56.1028451 C394.07912,56.1028451 405.396909,56.2520548 416.085931,56.2520548 C428.504061,56.2520548 439.979041,56.1028451 451.611213,55.5060063 C452.397171,49.8360379 452.868745,44.3152792 452.868745,38.6453109 C452.868745,33.1245522 452.397171,28.4990516 451.611213,22.9782929 C436.678019,22.0830348 422.845166,21.9338251 406.025675,21.9338251 C389.99214,21.9338251 376.316479,21.9338251 361.540477,22.5306639 L361.383285,108.923077 L327.272727,108.923077 L327.272727,1.64130664 C353.52371,0.596838778 379.931884,0 406.182866,0 C429.918784,0 460.413938,1.34288725 484.62143,4.62550053 C486.66492,15.2193888 488.079644,25.5148577 488.079644,36.108746 C488.079644,48.6423604 487.608069,61.4743941 484.62143,74.9032666 C473.618025,75.3508957 461.199895,76.5445732 448.938957,76.9922023 L490.909091,108.923077 L447.209851,108.923077 L381.346607,59.3854584 L381.346607,56.1028451 Z"/>
    <filter id="ror-logo-c" width="139.7%" height="157.8%" x="-19.3%" y="-28.9%" filterUnits="objectBoundingBox">
      <feMorphology in="SourceAlpha" operator="dilate" radius=".5" result="shadowSpreadOuter1"/>
      <feOffset in="shadowSpreadOuter1" result="shadowOffsetOuter1"/>
      <feGaussianBlur in="shadowOffsetOuter1" result="shadowBlurOuter1" stdDeviation="10"/>
      <feColorMatrix in="shadowBlurOuter1" values="0 0 0 0 0   0 0 0 0 0   0 0 0 0 0  0 0 0 0.4 0"/>
    </filter>
    <path id="ror-logo-f" d="M51.0697756,56.1028451 C63.0949262,56.1028451 73.783949,56.2520548 83.8791372,56.2520548 C95.6073705,56.2520548 106.444852,56.1028451 117.430792,55.5060063 C118.173085,49.8360379 118.618461,44.3152792 118.618461,38.6453109 C118.618461,33.1245522 118.173085,28.4990516 117.430792,22.9782929 C103.32722,22.0830348 90.2628591,21.9338251 74.3777836,21.9338251 C59.2350013,21.9338251 46.3190988,21.9338251 32.3639857,22.5306639 L32.215527,108.923077 L0,108.923077 L0,1.64130664 C24.7925945,0.596838778 49.7336477,0 74.5262422,0 C96.9434984,0 125.744476,1.34288725 148.607109,4.62550053 C150.537071,15.2193888 151.873199,25.5148577 151.873199,36.108746 C151.873199,48.6423604 151.427823,61.4743941 148.607109,74.9032666 C138.215003,75.3508957 126.48677,76.5445732 114.906995,76.9922023 L154.545455,108.923077 L113.27395,108.923077 L51.0697756,59.3854584 L51.0697756,56.1028451 Z"/>
    <filter id="ror-logo-e" width="142%" height="157.8%" x="-20.4%" y="-28.9%" filterUnits="objectBoundingBox">
      <feMorphology in="SourceAlpha" operator="dilate" radius=".5" result="shadowSpreadOuter1"/>
      <feOffset in="shadowSpreadOuter1" result="shadowOffsetOuter1"/>
      <feGaussianBlur in="shadowOffsetOuter1" result="shadowBlurOuter1" stdDeviation="10"/>
      <feColorMatrix in="shadowBlurOuter1" values="0 0 0 0 0   0 0 0 0 0   0 0 0 0 0  0 0 0 0.4 0"/>
    </filter>
  </defs>
  <g fill="none" fill-rule="evenodd" transform="translate(21 21)">
    <g fill-rule="nonzero">
      <use fill="#000" filter="url(#ror-logo-a)" xlink:href="#ror-logo-b"/>
      <use fill="#F0F5F9" xlink:href="#ror-logo-b"/>
    </g>
    <g fill-rule="nonzero" transform="matrix(-1 0 0 1 818.182 0)">
      <use fill="#000" filter="url(#ror-logo-c)" xlink:href="#ror-logo-d"/>
      <use fill="#F0F5F9" xlink:href="#ror-logo-d"/>
    </g>
    <g fill-rule="nonzero">
      <use fill="#000" filter="url(#ror-logo-e)" xlink:href="#ror-logo-f"/>
      <use fill="#F0F5F9" xlink:href="#ror-logo-f"/>
    </g>
  </g>
</svg>
